<svg xmlns="http://www.w3.org/2000/svg" width="1478.059" height="213" viewBox="0 0 1478.059 213">
  <defs>
    <style>
      .cls-1 {
        fill: #fff;
        stroke: #000;
        stroke-width: 5px;
        fill-rule: evenodd;
      }
    </style>
  </defs>
  <path id="main.svg" class="cls-1" d="M519.917,590H1647.97c0.17,0,.35,0,0.55,0s0.39,0.009.6,0.015c0.43,0.014.89,0.034,1.39,0.061,1.01,0.053,2.16.131,3.43,0.232,2.55,0.2,5.58.5,8.88,0.877,6.59,0.759,14.25,1.859,21.19,3.265,39.25,7.883,71.1,20.958,93.65,38.172,11.28,8.566,20.22,18.081,26.52,28.1a74.531,74.531,0,0,1,7.45,15.317,63.993,63.993,0,0,1,2.17,7.81,57.119,57.119,0,0,1,1.1,7.847c0.11,1.331.18,2.659,0.19,3.981s-0.02,2.64-.1,3.953a54.139,54.139,0,0,1-1.07,7.806,58.3,58.3,0,0,1-5.6,15.138c-5.25,9.852-13.53,19.18-24.63,27.777-22.18,17.2-55.67,31.469-97.84,41.438-14.86,3.655-32.45,6.193-37.88,6.211H519.917c-2.725,0-8.583-.265-15.72-0.754s-15.546-1.231-23.277-2.262c-44.057-5.218-79.157-17.635-103.052-34.452-11.948-8.408-21.094-17.916-27.159-28.174a63.27,63.27,0,0,1-6.75-15.906,57.692,57.692,0,0,1-1.576-8.292q-0.24-2.1-.326-4.217t-0.015-4.259c0.175-45.552,53.738-88.373,139.646-104.759,15.119-3.083,32.8-4.9,38.229-4.925h0Z" transform="translate(-339.531 -587.5)"/>
</svg>
